# Blender 4.5.3 LTS
# www.blender.org
mtllib GrowthPartile.mtl
o Cylinder
v 0.000000 -0.167804 -0.662340
v -0.000000 0.167804 -0.662340
v 0.124482 -0.134971 -0.437337
v 0.124482 0.134971 -0.437337
v 0.178129 -0.102139 -0.178129
v 0.178129 0.102139 -0.178129
v 0.437337 -0.134971 -0.124482
v 0.437337 0.134971 -0.124482
v 0.662340 -0.167804 0.000000
v 0.662341 0.167804 -0.000000
v 0.437337 -0.134971 0.124482
v 0.437337 0.134971 0.124482
v 0.178129 -0.102139 0.178129
v 0.178129 0.102139 0.178129
v 0.124482 -0.134971 0.437337
v 0.124482 0.134971 0.437337
v -0.000000 -0.167804 0.662340
v -0.000000 0.167804 0.662341
v -0.124482 -0.134971 0.437337
v -0.124482 0.134971 0.437337
v -0.178129 -0.102139 0.178129
v -0.178129 0.102139 0.178129
v -0.437337 -0.134971 0.124482
v -0.437337 0.134971 0.124482
v -0.662340 -0.167804 0.000000
v -0.662341 0.167804 0.000000
v -0.437337 -0.134971 -0.124482
v -0.437337 0.134971 -0.124482
v -0.178129 -0.102139 -0.178129
v -0.178129 0.102139 -0.178129
v -0.124482 -0.134971 -0.437337
v -0.124482 0.134971 -0.437337
v 0.346931 -0.130222 -0.379258
v 0.346931 0.130222 -0.379258
v 0.300354 -0.104743 -0.185217
v 0.300354 0.104743 -0.185217
v 0.195300 -0.079264 -0.008694
v 0.195300 0.079264 -0.008694
v 0.315623 -0.104743 0.157796
v 0.315623 0.104743 0.157796
v 0.379258 -0.130222 0.346931
v 0.379258 0.130222 0.346931
v 0.185217 -0.104743 0.300354
v 0.185217 0.104743 0.300354
v 0.008694 -0.079264 0.195300
v 0.008694 0.079264 0.195300
v -0.157796 -0.104743 0.315623
v -0.157796 0.104743 0.315623
v -0.346931 -0.130222 0.379258
v -0.346931 0.130222 0.379258
v -0.300354 -0.104743 0.185217
v -0.300354 0.104743 0.185217
v -0.195300 -0.079264 0.008694
v -0.195300 0.079264 0.008694
v -0.315623 -0.104743 -0.157796
v -0.315623 0.104743 -0.157796
v -0.379258 -0.130222 -0.346931
v -0.379258 0.130222 -0.346931
v -0.185217 -0.104743 -0.300354
v -0.185217 0.104743 -0.300354
v -0.008694 -0.079264 -0.195300
v -0.008694 0.079264 -0.195300
v 0.157796 -0.104743 -0.315623
v 0.157796 0.104743 -0.315623
v 0.067752 -0.191301 -0.523823
v 0.067752 0.191301 -0.523823
v -0.000000 0.000000 -0.772830
v 0.147742 0.000000 -0.495390
v 0.126774 -0.137796 -0.249191
v 0.126774 0.137796 -0.249191
v 0.192660 -0.000000 -0.192660
v 0.249191 -0.137796 -0.126774
v 0.249191 0.137796 -0.126774
v 0.495390 0.000000 -0.147742
v 0.523823 -0.191301 -0.067752
v 0.523823 0.191301 -0.067752
v 0.772830 0.000000 0.000000
v 0.523823 -0.191301 0.067752
v 0.523823 0.191301 0.067752
v 0.495390 0.000000 0.147742
v 0.249191 -0.137796 0.126774
v 0.249191 0.137796 0.126774
v 0.192660 -0.000000 0.192660
v 0.126774 -0.137796 0.249191
v 0.126774 0.137796 0.249191
v 0.147742 0.000000 0.495390
v 0.067752 -0.191301 0.523823
v 0.067752 0.191301 0.523823
v -0.000000 0.000000 0.772830
v -0.067752 -0.191301 0.523823
v -0.067752 0.191301 0.523823
v -0.147742 0.000000 0.495390
v -0.126774 -0.137796 0.249191
v -0.126774 0.137796 0.249191
v -0.192660 -0.000000 0.192660
v -0.249191 -0.137796 0.126774
v -0.249191 0.137796 0.126774
v -0.495390 0.000000 0.147742
v -0.523823 -0.191301 0.067752
v -0.523823 0.191301 0.067752
v -0.772830 0.000000 -0.000000
v -0.523823 -0.191301 -0.067752
v -0.523823 0.191301 -0.067752
v -0.495390 0.000000 -0.147742
v -0.249191 -0.137796 -0.126774
v -0.249191 0.137796 -0.126774
v -0.192660 -0.000000 -0.192660
v -0.126774 -0.137796 -0.249191
v -0.126774 0.137796 -0.249191
v -0.147742 0.000000 -0.495390
v -0.067752 -0.191301 -0.523823
v -0.067752 0.191301 -0.523823
v 0.313171 -0.148457 -0.264454
v 0.313171 0.148457 -0.264454
v 0.404805 -0.000000 -0.442524
v 0.344081 -0.000000 -0.206275
v 0.203116 -0.106935 -0.076284
v 0.203117 0.106935 -0.076284
v 0.211232 -0.000000 -0.009403
v 0.209091 -0.106935 0.057934
v 0.209091 0.106935 0.057934
v 0.361048 0.000000 0.174886
v 0.335431 -0.148457 0.235581
v 0.335431 0.148457 0.235581
v 0.442525 0.000000 0.404805
v 0.264454 -0.148457 0.313171
v 0.264454 0.148457 0.313171
v 0.206275 -0.000000 0.344081
v 0.076284 -0.106935 0.203116
v 0.076284 0.106935 0.203116
v 0.009403 -0.000000 0.211232
v -0.057934 -0.106935 0.209091
v -0.057934 0.106935 0.209091
v -0.174886 0.000000 0.361048
v -0.235581 -0.148457 0.335431
v -0.235581 0.148457 0.335431
v -0.404805 0.000000 0.442525
v -0.313171 -0.148457 0.264454
v -0.313171 0.148457 0.264454
v -0.344081 -0.000000 0.206275
v -0.203116 -0.106935 0.076284
v -0.203117 0.106935 0.076284
v -0.211232 -0.000000 0.009403
v -0.209091 -0.106935 -0.057934
v -0.209091 0.106935 -0.057934
v -0.361048 0.000000 -0.174886
v -0.335431 -0.148457 -0.235581
v -0.335431 0.148457 -0.235581
v -0.442525 0.000000 -0.404805
v -0.264454 -0.148457 -0.313171
v -0.264454 0.148457 -0.313171
v -0.206275 -0.000000 -0.344081
v -0.076284 -0.106935 -0.203117
v -0.076284 0.106935 -0.203117
v -0.009403 -0.000000 -0.211232
v 0.057934 -0.106935 -0.209091
v 0.057934 0.106935 -0.209091
v 0.174886 0.000000 -0.361048
v 0.235581 -0.148457 -0.335431
v 0.235581 0.148457 -0.335431
v 0.090785 0.000000 -0.675925
v 0.156682 0.000000 -0.304072
v 0.304072 0.000000 -0.156682
v 0.675925 0.000000 -0.090785
v 0.675925 0.000000 0.090785
v 0.304072 -0.000000 0.156682
v 0.156682 0.000000 0.304072
v 0.090785 0.000000 0.675925
v -0.090785 0.000000 0.675925
v -0.156682 -0.000000 0.304072
v -0.304072 0.000000 0.156682
v -0.675925 0.000000 0.090785
v -0.675925 0.000000 -0.090785
v -0.304072 -0.000000 -0.156682
v -0.000000 0.251375 -0.000000
v -0.156682 0.000000 -0.304072
v -0.090785 0.000000 -0.675925
v -0.000000 -0.251375 0.000000
v 0.406030 0.000000 -0.339484
v 0.248988 0.000000 -0.092043
v 0.256182 0.000000 0.069555
v 0.434589 0.000000 0.302063
v 0.339484 0.000000 0.406030
v 0.092043 0.000000 0.248988
v -0.069555 0.000000 0.256182
v -0.302063 0.000000 0.434589
v -0.406030 0.000000 0.339484
v -0.248988 0.000000 0.092043
v -0.256182 0.000000 -0.069555
v -0.434589 0.000000 -0.302063
v -0.339484 0.000000 -0.406030
v -0.092043 0.000000 -0.248988
v -0.000000 0.195076 0.000000
v 0.069555 -0.000000 -0.256182
v 0.302063 0.000000 -0.434589
v 0.000000 -0.195076 0.000000
vn 0.7258 -0.4358 -0.5323
vn 0.7258 0.4358 -0.5323
vn 0.8924 0.3269 -0.3110
vn 0.8924 -0.3269 -0.3110
vn 0.9786 -0.2034 -0.0305
vn 0.9786 0.2034 -0.0305
vn 0.8876 0.2719 -0.3717
vn 0.8876 -0.2719 -0.3717
vn 0.3717 -0.2719 -0.8876
vn 0.3717 0.2719 -0.8876
vn 0.0305 0.2034 -0.9786
vn 0.0305 -0.2034 -0.9786
vn 0.3110 -0.3269 -0.8924
vn 0.3110 0.3269 -0.8924
vn 0.5323 0.4358 -0.7258
vn 0.5323 -0.4358 -0.7258
vn 0.5323 -0.4358 0.7258
vn 0.5323 0.4358 0.7258
vn 0.3110 0.3269 0.8924
vn 0.3110 -0.3269 0.8924
vn 0.0305 -0.2034 0.9786
vn 0.0305 0.2034 0.9786
vn 0.3717 0.2719 0.8876
vn 0.3717 -0.2719 0.8876
vn 0.8876 -0.2719 0.3717
vn 0.8876 0.2719 0.3717
vn 0.9786 0.2034 0.0305
vn 0.9786 -0.2034 0.0305
vn 0.8924 -0.3269 0.3110
vn 0.8924 0.3269 0.3110
vn 0.7258 0.4358 0.5323
vn 0.7258 -0.4358 0.5323
vn -0.7258 -0.4358 0.5323
vn -0.7258 0.4358 0.5323
vn -0.8924 0.3269 0.3110
vn -0.8924 -0.3269 0.3110
vn -0.9786 -0.2034 0.0305
vn -0.9786 0.2034 0.0305
vn -0.8876 0.2719 0.3717
vn -0.8876 -0.2719 0.3717
vn -0.3717 -0.2719 0.8876
vn -0.3717 0.2719 0.8876
vn -0.0305 0.2034 0.9786
vn -0.0305 -0.2034 0.9786
vn -0.3110 -0.3269 0.8924
vn -0.3110 0.3269 0.8924
vn -0.5323 0.4358 0.7258
vn -0.5323 -0.4358 0.7258
vn -0.5323 -0.4358 -0.7258
vn -0.5323 0.4358 -0.7258
vn -0.3110 0.3269 -0.8924
vn -0.3110 -0.3269 -0.8924
vn -0.0305 -0.2034 -0.9786
vn -0.0305 0.2034 -0.9786
vn -0.3717 0.2719 -0.8876
vn -0.3717 -0.2719 -0.8876
vn 0.6782 0.7349 -0.0026
vn -0.0000 0.9921 -0.1252
vn -0.6782 0.7349 -0.0026
vn -0.3604 0.8604 -0.3604
vn -0.0026 0.7349 -0.6782
vn -0.1252 0.9921 -0.0000
vn -0.0026 0.7349 0.6782
vn -0.3604 0.8604 0.3604
vn -0.6782 0.7349 0.0026
vn -0.0000 0.9921 0.1252
vn 0.6782 0.7349 0.0026
vn 0.3604 0.8604 0.3604
vn 0.0026 0.7349 0.6782
vn 0.1252 0.9921 -0.0000
vn 0.0026 0.7349 -0.6782
vn 0.3604 0.8604 -0.3604
vn -0.8876 -0.2719 -0.3717
vn -0.8876 0.2719 -0.3717
vn -0.9786 0.2034 -0.0305
vn -0.9786 -0.2034 -0.0305
vn -0.8924 -0.3269 -0.3110
vn -0.8924 0.3269 -0.3110
vn -0.7258 0.4358 -0.5323
vn -0.7258 -0.4358 -0.5323
vn -0.0000 -0.9921 -0.1252
vn 0.6782 -0.7349 -0.0026
vn 0.3604 -0.8604 -0.3604
vn 0.0026 -0.7349 -0.6782
vn 0.1252 -0.9921 -0.0000
vn 0.0026 -0.7349 0.6782
vn 0.3604 -0.8604 0.3604
vn 0.6782 -0.7349 0.0026
vn -0.0000 -0.9921 0.1252
vn -0.6782 -0.7349 0.0026
vn -0.3604 -0.8604 0.3604
vn -0.0026 -0.7349 0.6782
vn -0.1252 -0.9921 -0.0000
vn -0.0026 -0.7349 -0.6782
vn -0.3604 -0.8604 -0.3604
vn -0.6782 -0.7349 -0.0026
vn 0.8948 -0.4358 0.0972
vn 0.8948 0.4358 0.0972
vn 0.8684 0.3269 0.3729
vn 0.8684 -0.3269 0.3729
vn 0.7427 -0.2034 0.6380
vn 0.7427 0.2034 0.6380
vn 0.9058 0.2719 0.3249
vn 0.9058 -0.2719 0.3249
vn 0.8734 -0.2719 -0.4041
vn 0.8734 0.2719 -0.4041
vn 0.6830 0.2034 -0.7015
vn 0.6830 -0.2034 -0.7015
vn 0.8318 -0.3269 -0.4486
vn 0.8318 0.3269 -0.4486
vn 0.8826 0.4358 -0.1763
vn 0.8826 -0.4358 -0.1763
vn -0.0972 -0.4358 0.8948
vn -0.0972 0.4358 0.8948
vn -0.3729 0.3269 0.8684
vn -0.3729 -0.3269 0.8684
vn -0.6380 -0.2034 0.7427
vn -0.6380 0.2034 0.7427
vn -0.3249 0.2719 0.9058
vn -0.3249 -0.2719 0.9058
vn 0.4041 -0.2719 0.8734
vn 0.4041 0.2719 0.8734
vn 0.7015 0.2034 0.6830
vn 0.7015 -0.2034 0.6830
vn 0.4486 -0.3269 0.8318
vn 0.4486 0.3269 0.8318
vn 0.1763 0.4358 0.8826
vn 0.1763 -0.4358 0.8826
vn -0.8948 -0.4358 -0.0972
vn -0.8948 0.4358 -0.0972
vn -0.8684 0.3269 -0.3729
vn -0.8684 -0.3269 -0.3729
vn -0.7427 -0.2034 -0.6380
vn -0.7427 0.2034 -0.6380
vn -0.9058 0.2719 -0.3249
vn -0.9058 -0.2719 -0.3249
vn -0.8734 -0.2719 0.4041
vn -0.8734 0.2719 0.4041
vn -0.6830 0.2034 0.7015
vn -0.6830 -0.2034 0.7015
vn -0.8318 -0.3269 0.4486
vn -0.8318 0.3269 0.4486
vn -0.8826 0.4358 0.1763
vn -0.8826 -0.4358 0.1763
vn 0.0972 -0.4358 -0.8948
vn 0.0972 0.4358 -0.8948
vn 0.3729 0.3269 -0.8684
vn 0.3729 -0.3269 -0.8684
vn 0.6380 -0.2034 -0.7427
vn 0.6380 0.2034 -0.7427
vn 0.3249 0.2719 -0.9058
vn 0.3249 -0.2719 -0.9058
vn 0.5021 0.7349 0.4558
vn 0.0845 0.9921 -0.0924
vn -0.4987 0.7349 -0.4596
vn -0.0227 0.8604 -0.5092
vn 0.4558 0.7349 -0.5021
vn -0.0924 0.9921 -0.0845
vn -0.4596 0.7349 0.4987
vn -0.5092 0.8604 0.0227
vn -0.5021 0.7349 -0.4558
vn -0.0845 0.9921 0.0924
vn 0.4987 0.7349 0.4596
vn 0.0227 0.8604 0.5092
vn -0.4558 0.7349 0.5021
vn 0.0924 0.9921 0.0845
vn 0.4596 0.7349 -0.4987
vn 0.5092 0.8604 -0.0227
vn -0.4041 -0.2719 -0.8734
vn -0.4041 0.2719 -0.8734
vn -0.7015 0.2034 -0.6830
vn -0.7015 -0.2034 -0.6830
vn -0.4486 -0.3269 -0.8318
vn -0.4486 0.3269 -0.8318
vn -0.1763 0.4358 -0.8826
vn -0.1763 -0.4358 -0.8826
vn 0.0845 -0.9921 -0.0924
vn 0.5021 -0.7349 0.4558
vn 0.5092 -0.8604 -0.0227
vn 0.4596 -0.7349 -0.4987
vn 0.0924 -0.9921 0.0845
vn -0.4558 -0.7349 0.5021
vn 0.0227 -0.8604 0.5092
vn 0.4987 -0.7349 0.4596
vn -0.0845 -0.9921 0.0924
vn -0.5021 -0.7349 -0.4558
vn -0.5092 -0.8604 0.0227
vn -0.4596 -0.7349 0.4987
vn -0.0924 -0.9921 -0.0845
vn 0.4558 -0.7349 -0.5021
vn -0.0227 -0.8604 -0.5092
vn -0.4987 -0.7349 -0.4596
vt 1.000000 0.500000
vt 1.000000 0.750000
vt 0.968750 0.750000
vt 0.968750 0.500000
vt 1.000000 1.000000
vt 0.968750 1.000000
vt 0.937500 1.000000
vt 0.937500 0.750000
vt 0.937500 0.500000
vt 0.906250 0.750000
vt 0.906250 0.500000
vt 0.906250 1.000000
vt 0.875000 1.000000
vt 0.875000 0.750000
vt 0.875000 0.500000
vt 0.843750 0.750000
vt 0.843750 0.500000
vt 0.843750 1.000000
vt 0.812500 1.000000
vt 0.812500 0.750000
vt 0.812500 0.500000
vt 0.781250 0.750000
vt 0.781250 0.500000
vt 0.781250 1.000000
vt 0.750000 1.000000
vt 0.750000 0.750000
vt 0.750000 0.500000
vt 0.718750 0.750000
vt 0.718750 0.500000
vt 0.718750 1.000000
vt 0.687500 1.000000
vt 0.687500 0.750000
vt 0.687500 0.500000
vt 0.656250 0.750000
vt 0.656250 0.500000
vt 0.656250 1.000000
vt 0.625000 1.000000
vt 0.625000 0.750000
vt 0.625000 0.500000
vt 0.593750 0.750000
vt 0.593750 0.500000
vt 0.593750 1.000000
vt 0.562500 1.000000
vt 0.562500 0.750000
vt 0.562500 0.500000
vt 0.531250 0.750000
vt 0.531250 0.500000
vt 0.531250 1.000000
vt 0.500000 1.000000
vt 0.500000 0.750000
vt 0.500000 0.500000
vt 0.468750 0.750000
vt 0.468750 0.500000
vt 0.468750 1.000000
vt 0.437500 1.000000
vt 0.437500 0.750000
vt 0.437500 0.500000
vt 0.406250 0.750000
vt 0.406250 0.500000
vt 0.406250 1.000000
vt 0.375000 1.000000
vt 0.375000 0.750000
vt 0.375000 0.500000
vt 0.343750 0.750000
vt 0.343750 0.500000
vt 0.343750 1.000000
vt 0.312500 1.000000
vt 0.312500 0.750000
vt 0.312500 0.500000
vt 0.281250 0.750000
vt 0.281250 0.500000
vt 0.281250 1.000000
vt 0.250000 1.000000
vt 0.250000 0.750000
vt 0.250000 0.500000
vt 0.218750 0.750000
vt 0.218750 0.500000
vt 0.218750 1.000000
vt 0.187500 1.000000
vt 0.187500 0.750000
vt 0.187500 0.500000
vt 0.156250 0.750000
vt 0.156250 0.500000
vt 0.156250 1.000000
vt 0.125000 1.000000
vt 0.125000 0.750000
vt 0.125000 0.500000
vt 0.341844 0.471731
vt 0.295922 0.480866
vt 0.250000 0.250000
vt 0.380775 0.445718
vt 0.250000 0.490000
vt 0.204078 0.480866
vt 0.158156 0.471731
vt 0.119225 0.445718
vt 0.080294 0.419706
vt 0.054282 0.380775
vt 0.028269 0.341844
vt 0.019134 0.295922
vt 0.010000 0.250000
vt 0.019134 0.204078
vt 0.028269 0.158156
vt 0.054282 0.119225
vt 0.080294 0.080294
vt 0.119225 0.054282
vt 0.158156 0.028269
vt 0.204078 0.019134
vt 0.250000 0.010000
vt 0.295922 0.019134
vt 0.341844 0.028269
vt 0.380775 0.054282
vt 0.419706 0.080294
vt 0.445718 0.119225
vt 0.471731 0.158156
vt 0.480866 0.204078
vt 0.490000 0.250000
vt 0.480866 0.295922
vt 0.471731 0.341844
vt 0.445718 0.380775
vt 0.419706 0.419706
vt 0.093750 0.750000
vt 0.093750 0.500000
vt 0.093750 1.000000
vt 0.062500 1.000000
vt 0.062500 0.750000
vt 0.062500 0.500000
vt 0.031250 0.750000
vt 0.031250 0.500000
vt 0.031250 1.000000
vt 0.000000 1.000000
vt 0.000000 0.750000
vt 0.000000 0.500000
vt 0.750000 0.490000
vt 0.795922 0.480866
vt 0.750000 0.250000
vt 0.704078 0.480866
vt 0.841844 0.471731
vt 0.880775 0.445718
vt 0.919706 0.419706
vt 0.945718 0.380775
vt 0.971731 0.341844
vt 0.980866 0.295922
vt 0.990000 0.250000
vt 0.980866 0.204078
vt 0.971731 0.158156
vt 0.945718 0.119225
vt 0.919706 0.080294
vt 0.880775 0.054282
vt 0.841844 0.028269
vt 0.795922 0.019134
vt 0.750000 0.010000
vt 0.704078 0.019134
vt 0.658156 0.028269
vt 0.619225 0.054282
vt 0.580294 0.080294
vt 0.554282 0.119225
vt 0.528269 0.158156
vt 0.519135 0.204078
vt 0.510000 0.250000
vt 0.519135 0.295922
vt 0.528269 0.341844
vt 0.554282 0.380775
vt 0.580294 0.419706
vt 0.619225 0.445718
vt 0.658156 0.471731
s 0
f 1/1/1 67/2/1 161/3/1 65/4/1
f 67/2/2 2/5/2 66/6/2 161/3/2
f 161/3/3 66/6/3 4/7/3 68/8/3
f 65/4/4 161/3/4 68/8/4 3/9/4
f 3/9/5 68/8/5 162/10/5 69/11/5
f 68/8/6 4/7/6 70/12/6 162/10/6
f 162/10/7 70/12/7 6/13/7 71/14/7
f 69/11/8 162/10/8 71/14/8 5/15/8
f 5/15/9 71/14/9 163/16/9 72/17/9
f 71/14/10 6/13/10 73/18/10 163/16/10
f 163/16/11 73/18/11 8/19/11 74/20/11
f 72/17/12 163/16/12 74/20/12 7/21/12
f 7/21/13 74/20/13 164/22/13 75/23/13
f 74/20/14 8/19/14 76/24/14 164/22/14
f 164/22/15 76/24/15 10/25/15 77/26/15
f 75/23/16 164/22/16 77/26/16 9/27/16
f 9/27/17 77/26/17 165/28/17 78/29/17
f 77/26/18 10/25/18 79/30/18 165/28/18
f 165/28/19 79/30/19 12/31/19 80/32/19
f 78/29/20 165/28/20 80/32/20 11/33/20
f 11/33/21 80/32/21 166/34/21 81/35/21
f 80/32/22 12/31/22 82/36/22 166/34/22
f 166/34/23 82/36/23 14/37/23 83/38/23
f 81/35/24 166/34/24 83/38/24 13/39/24
f 13/39/25 83/38/25 167/40/25 84/41/25
f 83/38/26 14/37/26 85/42/26 167/40/26
f 167/40/27 85/42/27 16/43/27 86/44/27
f 84/41/28 167/40/28 86/44/28 15/45/28
f 15/45/29 86/44/29 168/46/29 87/47/29
f 86/44/30 16/43/30 88/48/30 168/46/30
f 168/46/31 88/48/31 18/49/31 89/50/31
f 87/47/32 168/46/32 89/50/32 17/51/32
f 17/51/33 89/50/33 169/52/33 90/53/33
f 89/50/34 18/49/34 91/54/34 169/52/34
f 169/52/35 91/54/35 20/55/35 92/56/35
f 90/53/36 169/52/36 92/56/36 19/57/36
f 19/57/37 92/56/37 170/58/37 93/59/37
f 92/56/38 20/55/38 94/60/38 170/58/38
f 170/58/39 94/60/39 22/61/39 95/62/39
f 93/59/40 170/58/40 95/62/40 21/63/40
f 21/63/41 95/62/41 171/64/41 96/65/41
f 95/62/42 22/61/42 97/66/42 171/64/42
f 171/64/43 97/66/43 24/67/43 98/68/43
f 96/65/44 171/64/44 98/68/44 23/69/44
f 23/69/45 98/68/45 172/70/45 99/71/45
f 98/68/46 24/67/46 100/72/46 172/70/46
f 172/70/47 100/72/47 26/73/47 101/74/47
f 99/71/48 172/70/48 101/74/48 25/75/48
f 25/75/49 101/74/49 173/76/49 102/77/49
f 101/74/50 26/73/50 103/78/50 173/76/50
f 173/76/51 103/78/51 28/79/51 104/80/51
f 102/77/52 173/76/52 104/80/52 27/81/52
f 27/81/53 104/80/53 174/82/53 105/83/53
f 104/80/54 28/79/54 106/84/54 174/82/54
f 174/82/55 106/84/55 30/85/55 107/86/55
f 105/83/56 174/82/56 107/86/56 29/87/56
f 4/88/57 66/89/57 175/90/57 70/91/57
f 2/92/58 112/93/58 175/90/58 66/89/58
f 32/94/59 109/95/59 175/90/59 112/93/59
f 30/96/60 106/97/60 175/90/60 109/95/60
f 28/98/61 103/99/61 175/90/61 106/97/61
f 26/100/62 100/101/62 175/90/62 103/99/62
f 24/102/63 97/103/63 175/90/63 100/101/63
f 22/104/64 94/105/64 175/90/64 97/103/64
f 20/106/65 91/107/65 175/90/65 94/105/65
f 18/108/66 88/109/66 175/90/66 91/107/66
f 16/110/67 85/111/67 175/90/67 88/109/67
f 14/112/68 82/113/68 175/90/68 85/111/68
f 12/114/69 79/115/69 175/90/69 82/113/69
f 10/116/70 76/117/70 175/90/70 79/115/70
f 8/118/71 73/119/71 175/90/71 76/117/71
f 6/120/72 70/91/72 175/90/72 73/119/72
f 29/87/73 107/86/73 176/121/73 108/122/73
f 107/86/74 30/85/74 109/123/74 176/121/74
f 176/121/75 109/123/75 32/124/75 110/125/75
f 108/122/76 176/121/76 110/125/76 31/126/76
f 31/126/77 110/125/77 177/127/77 111/128/77
f 110/125/78 32/124/78 112/129/78 177/127/78
f 177/127/79 112/129/79 2/130/79 67/131/79
f 111/128/80 177/127/80 67/131/80 1/132/80
f 1/133/81 65/134/81 178/135/81 111/136/81
f 3/137/82 69/138/82 178/135/82 65/134/82
f 5/139/83 72/140/83 178/135/83 69/138/83
f 7/141/84 75/142/84 178/135/84 72/140/84
f 9/143/85 78/144/85 178/135/85 75/142/85
f 11/145/86 81/146/86 178/135/86 78/144/86
f 13/147/87 84/148/87 178/135/87 81/146/87
f 15/149/88 87/150/88 178/135/88 84/148/88
f 17/151/89 90/152/89 178/135/89 87/150/89
f 19/153/90 93/154/90 178/135/90 90/152/90
f 21/155/91 96/156/91 178/135/91 93/154/91
f 23/157/92 99/158/92 178/135/92 96/156/92
f 25/159/93 102/160/93 178/135/93 99/158/93
f 27/161/94 105/162/94 178/135/94 102/160/94
f 29/163/95 108/164/95 178/135/95 105/162/95
f 31/165/96 111/136/96 178/135/96 108/164/96
f 33/1/97 115/2/97 179/3/97 113/4/97
f 115/2/98 34/5/98 114/6/98 179/3/98
f 179/3/99 114/6/99 36/7/99 116/8/99
f 113/4/100 179/3/100 116/8/100 35/9/100
f 35/9/101 116/8/101 180/10/101 117/11/101
f 116/8/102 36/7/102 118/12/102 180/10/102
f 180/10/103 118/12/103 38/13/103 119/14/103
f 117/11/104 180/10/104 119/14/104 37/15/104
f 37/15/105 119/14/105 181/16/105 120/17/105
f 119/14/106 38/13/106 121/18/106 181/16/106
f 181/16/107 121/18/107 40/19/107 122/20/107
f 120/17/108 181/16/108 122/20/108 39/21/108
f 39/21/109 122/20/109 182/22/109 123/23/109
f 122/20/110 40/19/110 124/24/110 182/22/110
f 182/22/111 124/24/111 42/25/111 125/26/111
f 123/23/112 182/22/112 125/26/112 41/27/112
f 41/27/113 125/26/113 183/28/113 126/29/113
f 125/26/114 42/25/114 127/30/114 183/28/114
f 183/28/115 127/30/115 44/31/115 128/32/115
f 126/29/116 183/28/116 128/32/116 43/33/116
f 43/33/117 128/32/117 184/34/117 129/35/117
f 128/32/118 44/31/118 130/36/118 184/34/118
f 184/34/119 130/36/119 46/37/119 131/38/119
f 129/35/120 184/34/120 131/38/120 45/39/120
f 45/39/121 131/38/121 185/40/121 132/41/121
f 131/38/122 46/37/122 133/42/122 185/40/122
f 185/40/123 133/42/123 48/43/123 134/44/123
f 132/41/124 185/40/124 134/44/124 47/45/124
f 47/45/125 134/44/125 186/46/125 135/47/125
f 134/44/126 48/43/126 136/48/126 186/46/126
f 186/46/127 136/48/127 50/49/127 137/50/127
f 135/47/128 186/46/128 137/50/128 49/51/128
f 49/51/129 137/50/129 187/52/129 138/53/129
f 137/50/130 50/49/130 139/54/130 187/52/130
f 187/52/131 139/54/131 52/55/131 140/56/131
f 138/53/132 187/52/132 140/56/132 51/57/132
f 51/57/133 140/56/133 188/58/133 141/59/133
f 140/56/134 52/55/134 142/60/134 188/58/134
f 188/58/135 142/60/135 54/61/135 143/62/135
f 141/59/136 188/58/136 143/62/136 53/63/136
f 53/63/137 143/62/137 189/64/137 144/65/137
f 143/62/138 54/61/138 145/66/138 189/64/138
f 189/64/139 145/66/139 56/67/139 146/68/139
f 144/65/140 189/64/140 146/68/140 55/69/140
f 55/69/141 146/68/141 190/70/141 147/71/141
f 146/68/142 56/67/142 148/72/142 190/70/142
f 190/70/143 148/72/143 58/73/143 149/74/143
f 147/71/144 190/70/144 149/74/144 57/75/144
f 57/75/145 149/74/145 191/76/145 150/77/145
f 149/74/146 58/73/146 151/78/146 191/76/146
f 191/76/147 151/78/147 60/79/147 152/80/147
f 150/77/148 191/76/148 152/80/148 59/81/148
f 59/81/149 152/80/149 192/82/149 153/83/149
f 152/80/150 60/79/150 154/84/150 192/82/150
f 192/82/151 154/84/151 62/85/151 155/86/151
f 153/83/152 192/82/152 155/86/152 61/87/152
f 36/88/153 114/89/153 193/90/153 118/91/153
f 34/92/154 160/93/154 193/90/154 114/89/154
f 64/94/155 157/95/155 193/90/155 160/93/155
f 62/96/156 154/97/156 193/90/156 157/95/156
f 60/98/157 151/99/157 193/90/157 154/97/157
f 58/100/158 148/101/158 193/90/158 151/99/158
f 56/102/159 145/103/159 193/90/159 148/101/159
f 54/104/160 142/105/160 193/90/160 145/103/160
f 52/106/161 139/107/161 193/90/161 142/105/161
f 50/108/162 136/109/162 193/90/162 139/107/162
f 48/110/163 133/111/163 193/90/163 136/109/163
f 46/112/164 130/113/164 193/90/164 133/111/164
f 44/114/165 127/115/165 193/90/165 130/113/165
f 42/116/166 124/117/166 193/90/166 127/115/166
f 40/118/167 121/119/167 193/90/167 124/117/167
f 38/120/168 118/91/168 193/90/168 121/119/168
f 61/87/169 155/86/169 194/121/169 156/122/169
f 155/86/170 62/85/170 157/123/170 194/121/170
f 194/121/171 157/123/171 64/124/171 158/125/171
f 156/122/172 194/121/172 158/125/172 63/126/172
f 63/126/173 158/125/173 195/127/173 159/128/173
f 158/125/174 64/124/174 160/129/174 195/127/174
f 195/127/175 160/129/175 34/130/175 115/131/175
f 159/128/176 195/127/176 115/131/176 33/132/176
f 33/133/177 113/134/177 196/135/177 159/136/177
f 35/137/178 117/138/178 196/135/178 113/134/178
f 37/139/179 120/140/179 196/135/179 117/138/179
f 39/141/180 123/142/180 196/135/180 120/140/180
f 41/143/181 126/144/181 196/135/181 123/142/181
f 43/145/182 129/146/182 196/135/182 126/144/182
f 45/147/183 132/148/183 196/135/183 129/146/183
f 47/149/184 135/150/184 196/135/184 132/148/184
f 49/151/185 138/152/185 196/135/185 135/150/185
f 51/153/186 141/154/186 196/135/186 138/152/186
f 53/155/187 144/156/187 196/135/187 141/154/187
f 55/157/188 147/158/188 196/135/188 144/156/188
f 57/159/189 150/160/189 196/135/189 147/158/189
f 59/161/190 153/162/190 196/135/190 150/160/190
f 61/163/191 156/164/191 196/135/191 153/162/191
f 63/165/192 159/136/192 196/135/192 156/164/192
